<svg width="1920" height="1080" viewBox="0 0 1920 1080" fill="none" xmlns="http://www.w3.org/2000/svg">
<g clip-path="url(#clip0)">
<rect width="1920" height="1080" fill="#FDFF9F"/>
<path d="M68.7634 810.847C137.983 853.586 207.547 733.033 233.676 667.415L401.538 714.858C384.576 767.518 343.692 920.443 390.951 938.558C328.095 962.64 331.707 869.607 331.042 815.177C309.75 871.564 253.376 968.531 198.21 905.297C241.034 902.08 255.357 832.695 260.307 772.948L217.352 818.253C186.005 844.819 112.403 880.531 68.7634 810.847Z" fill="#8C209F"/>
<path d="M76.996 818.102C146.191 861.668 216.7 737.208 243.306 669.532L411.441 717.355C394.11 771.642 352.184 929.243 399.492 947.602C336.285 972.756 340.461 877.005 340.117 821.001C318.42 879.149 261.284 979.261 206.31 914.521C249.296 910.956 264.077 839.475 269.398 777.967L226.032 824.841C194.424 852.363 120.366 889.546 76.996 818.102Z" fill="#B638CC"/>
<path d="M85.4813 817.82C155.722 862.363 227.662 734.534 254.852 665.052L425.655 713.747C407.921 769.474 364.963 931.239 413.01 949.969C348.708 975.91 353.16 877.675 352.931 820.225C330.751 879.923 272.456 982.745 216.717 916.452C260.419 912.702 275.599 839.341 281.14 776.232L236.958 824.411C204.77 852.713 129.412 891.017 85.4813 817.82Z" fill="#7D288C"/>
<path d="M434.374 565.545C517.122 592.727 546.739 568.495 560.088 552.478C562.308 570.047 572.922 605.84 526.535 612.486C491.272 617.539 479.84 619.988 477.8 620.979L478.221 621.516C477.448 621.458 477.157 621.291 477.8 620.979L434.374 565.545Z" fill="#C367D2"/>
<path d="M435.58 572.83C518.328 600.012 547.945 575.78 561.294 559.763C563.514 577.332 574.128 613.125 527.741 619.771C492.478 624.823 481.046 627.273 479.006 628.264L479.427 628.801C478.654 628.743 478.363 628.576 479.006 628.264L435.58 572.83Z" fill="#B155C0"/>
<circle cx="338.39" cy="606.208" r="137.113" transform="rotate(12.4026 338.39 606.208)" fill="#B544C8"/>
<path d="M500.421 771.718C503.682 727.764 451.247 672.989 424.621 651.096C420.631 661.559 408.929 685.32 394.037 696.664C375.423 710.843 428.954 737.861 455.147 774.997C481.34 812.133 424.856 854.428 441.636 852.756C458.416 851.084 496.345 826.66 500.421 771.718Z" fill="#B544C8"/>
<path d="M494.197 774.593C497.458 730.639 445.023 675.864 418.398 653.971C414.408 664.434 402.705 688.195 387.813 699.539C369.199 713.718 422.73 740.735 448.923 777.872C475.116 815.008 418.633 857.303 435.412 855.63C452.192 853.958 490.121 829.535 494.197 774.593Z" fill="#A041B0"/>
<circle cx="430.489" cy="691.734" r="9.59794" transform="rotate(65.207 430.489 691.734)" fill="#5B5B5B" fill-opacity="0.67"/>
<circle cx="448.402" cy="707.626" r="6.85567" transform="rotate(65.207 448.402 707.626)" fill="#5B5B5B" fill-opacity="0.67"/>
<circle cx="432.08" cy="729.513" r="8.91237" transform="rotate(65.207 432.08 729.513)" fill="#5B5B5B" fill-opacity="0.67"/>
<circle cx="461.91" cy="727.062" r="6.85567" transform="rotate(65.207 461.91 727.062)" fill="#5B5B5B" fill-opacity="0.67"/>
<circle cx="470.105" cy="749.707" r="8.91237" transform="rotate(65.207 470.105 749.707)" fill="#5B5B5B" fill-opacity="0.67"/>
<circle cx="453.014" cy="756.847" r="6.85567" transform="rotate(65.207 453.014 756.847)" fill="#5B5B5B" fill-opacity="0.67"/>
<circle cx="465.088" cy="782.987" r="6.85567" transform="rotate(65.207 465.088 782.987)" fill="#5B5B5B" fill-opacity="0.67"/>
<circle cx="481.939" cy="773.693" r="8.2268" transform="rotate(65.207 481.939 773.693)" fill="#5B5B5B" fill-opacity="0.67"/>
<circle cx="473.858" cy="806.877" r="8.91237" transform="rotate(65.207 473.858 806.877)" fill="#5B5B5B" fill-opacity="0.67"/>
<circle cx="461.271" cy="827.04" r="6.85567" transform="rotate(65.207 461.271 827.04)" fill="#5B5B5B" fill-opacity="0.67"/>
<circle cx="287.077" cy="891.297" r="8.91237" transform="rotate(65.207 287.077 891.297)" fill="#5B5B5B" fill-opacity="0.67"/>
<circle cx="297.679" cy="843.088" r="8.91237" transform="rotate(65.207 297.679 843.088)" fill="#5B5B5B" fill-opacity="0.67"/>
<circle cx="321.783" cy="848.389" r="8.91237" transform="rotate(65.207 321.783 848.389)" fill="#5B5B5B" fill-opacity="0.67"/>
<circle cx="367.314" cy="858.402" r="8.91237" transform="rotate(65.207 367.314 858.402)" fill="#5B5B5B" fill-opacity="0.67"/>
<circle cx="373.499" cy="830.28" r="8.91237" transform="rotate(65.207 373.499 830.28)" fill="#5B5B5B" fill-opacity="0.67"/>
<circle cx="379.094" cy="804.836" r="8.91237" transform="rotate(65.207 379.094 804.836)" fill="#5B5B5B" fill-opacity="0.67"/>
<circle cx="367.37" cy="883.684" r="8.91237" transform="rotate(65.207 367.37 883.684)" fill="#5B5B5B" fill-opacity="0.67"/>
<circle cx="317.255" cy="817.911" r="8.91237" transform="rotate(65.207 317.255 817.911)" fill="#5B5B5B" fill-opacity="0.67"/>
<circle cx="307.235" cy="793.246" r="8.91237" transform="rotate(65.207 307.235 793.246)" fill="#5B5B5B" fill-opacity="0.67"/>
<circle cx="210.58" cy="798.664" r="8.91237" transform="rotate(65.207 210.58 798.664)" fill="#5B5B5B" fill-opacity="0.67"/>
<circle cx="220.781" cy="771.426" r="8.91237" transform="rotate(65.207 220.781 771.426)" fill="#5B5B5B" fill-opacity="0.67"/>
<circle cx="178.229" cy="830.859" r="8.91237" transform="rotate(65.207 178.229 830.859)" fill="#5B5B5B" fill-opacity="0.67"/>
<circle cx="120.246" cy="839.166" r="8.91237" transform="rotate(65.207 120.246 839.166)" fill="#5B5B5B" fill-opacity="0.67"/>
<circle cx="145.396" cy="846.101" r="8.91237" transform="rotate(65.207 145.396 846.101)" fill="#5B5B5B" fill-opacity="0.67"/>
<circle cx="305.181" cy="872.816" r="8.91237" transform="rotate(65.207 305.181 872.816)" fill="#5B5B5B" fill-opacity="0.67"/>
<circle cx="205.734" cy="827.08" r="8.91237" transform="rotate(65.207 205.734 827.08)" fill="#5B5B5B" fill-opacity="0.67"/>
<circle cx="252.626" cy="779.833" r="8.91237" transform="rotate(65.207 252.626 779.833)" fill="#5B5B5B" fill-opacity="0.67"/>
<circle cx="380.55" cy="925.892" r="8.91237" transform="rotate(65.207 380.55 925.892)" fill="#5B5B5B" fill-opacity="0.67"/>
<circle cx="254.271" cy="919.18" r="8.91237" transform="rotate(65.207 254.271 919.18)" fill="#5B5B5B" fill-opacity="0.67"/>
<circle cx="548.892" cy="588.636" r="8.32708" transform="rotate(65.207 548.892 588.636)" fill="#5B5B5B" fill-opacity="0.67"/>
<circle cx="535.427" cy="606.596" r="6.2743" transform="rotate(65.207 535.427 606.596)" fill="#5B5B5B" fill-opacity="0.67"/>
<circle cx="486.473" cy="603.827" r="8.91237" transform="rotate(65.207 486.473 603.827)" fill="#5B5B5B" fill-opacity="0.67"/>
<circle cx="511.006" cy="600.798" r="8.91237" transform="rotate(65.207 511.006 600.798)" fill="#5B5B5B" fill-opacity="0.67"/>
<path d="M106.693 576.728C137.702 545.407 213.445 548.988 247.44 554.694C242.169 564.573 231.932 589.002 233.155 607.682C234.683 631.032 179.156 608.398 133.948 613.028C88.7402 617.657 93.9298 688.029 84.173 674.276C74.4162 660.523 67.9315 615.879 106.693 576.728Z" fill="#B544C8"/>
<path d="M108.611 583.31C139.621 551.989 215.363 555.57 249.358 561.276C244.087 571.155 233.85 595.584 235.073 614.263C236.601 637.613 181.074 614.98 135.866 619.609C90.6585 624.239 95.8481 694.611 86.0913 680.858C76.3345 667.104 69.8497 622.461 108.611 583.31Z" fill="#A041B0"/>
<circle r="9.59794" transform="matrix(-0.960049 0.279832 0.279832 0.960049 212.937 576.953)" fill="#5B5B5B" fill-opacity="0.67"/>
<circle r="6.85567" transform="matrix(-0.960049 0.279832 0.279832 0.960049 189.19 573.877)" fill="#5B5B5B" fill-opacity="0.67"/>
<circle r="8.91237" transform="matrix(-0.960049 0.279832 0.279832 0.960049 183.399 600.559)" fill="#5B5B5B" fill-opacity="0.67"/>
<circle r="6.85567" transform="matrix(-0.960049 0.279832 0.279832 0.960049 165.66 576.451)" fill="#5B5B5B" fill-opacity="0.67"/>
<circle r="8.91237" transform="matrix(-0.960049 0.279832 0.279832 0.960049 143.2 585.14)" fill="#5B5B5B" fill-opacity="0.67"/>
<circle r="6.85567" transform="matrix(-0.960049 0.279832 0.279832 0.960049 149.038 602.719)" fill="#5B5B5B" fill-opacity="0.67"/>
<circle r="6.85567" transform="matrix(-0.960049 0.279832 0.279832 0.960049 121.394 610.776)" fill="#5B5B5B" fill-opacity="0.67"/>
<circle r="8.2268" transform="matrix(-0.960049 0.279832 0.279832 0.960049 117.339 591.964)" fill="#5B5B5B" fill-opacity="0.67"/>
<circle r="8.91237" transform="matrix(-0.960049 0.279832 0.279832 0.960049 97.6169 619.849)" fill="#5B5B5B" fill-opacity="0.67"/>
<circle r="6.85567" transform="matrix(-0.960049 0.279832 0.279832 0.960049 90.675 642.581)" fill="#5B5B5B" fill-opacity="0.67"/>
<circle cx="350.442" cy="608.859" r="137.113" transform="rotate(12.4026 350.442 608.859)" fill="#9C2DAF"/>
<path d="M366.443 675.686C341.685 698.426 297.788 648.845 278.935 621.211L408.831 649.777C405.017 648.938 391.2 652.946 366.443 675.686Z" fill="black"/>
<circle cx="331.289" cy="555.51" r="20.567" transform="rotate(12.4026 331.289 555.51)" fill="#DCD300" fill-opacity="0.85"/>
<circle cx="425.028" cy="576.125" r="20.567" transform="rotate(12.4026 425.028 576.125)" fill="#DCD300" fill-opacity="0.85"/>
<circle cx="327.926" cy="548.453" r="7.54124" transform="rotate(12.4026 327.926 548.453)" fill="white"/>
<circle cx="420.327" cy="568.773" r="7.54124" transform="rotate(12.4026 420.327 568.773)" fill="white"/>
<path d="M321.75 653.562L315.476 629.234L337.58 634.052L321.75 653.562Z" fill="white"/>
<path d="M365.943 663.28L359.669 638.952L381.772 643.77L365.943 663.28Z" fill="white"/>
<path d="M344.582 359.471C320.461 329.059 302.583 423.635 297.274 476.965C329.076 486.148 402.406 508.875 430.872 495.282C459.338 481.689 452.26 401.712 442.294 367.231C418.725 376.789 368.703 389.884 344.582 359.471Z" fill="#6F3E10"/>
<path d="M537.298 546.03C518.978 552.62 309.821 519.17 207.533 501.621C175.795 494.641 133.49 475.187 218.18 453.208C302.87 431.229 449.937 476.585 515.641 500.664C544.915 511.392 555.618 539.439 537.298 546.03Z" fill="#804713"/>
<path d="M536.073 549.081C518.001 554.654 309.408 520.06 207.371 502.066C175.678 495.097 133.222 476.635 216.942 458.544C300.662 440.454 447.789 484.508 513.6 507.638C542.921 517.943 554.145 543.509 536.073 549.081Z" fill="#572D06"/>
<path d="M347.715 364.555C324.149 335.214 306.981 426.22 301.947 477.55C332.938 486.472 404.405 508.539 432.09 495.525C459.775 482.512 452.678 405.497 442.885 372.275C419.958 381.416 371.281 393.896 347.715 364.555Z" fill="#5E340E"/>
<path d="M450.407 470.155C451.62 508.046 353.398 484.621 304.135 468.172C298.77 462.78 290.92 450.384 302.446 443.934C316.854 435.871 447.634 460.42 450.407 470.155Z" fill="#A50000" stroke="#B41616" stroke-width="1.37113"/>
<path d="M442.386 455.697C450.999 449.729 441.212 406.77 435.243 386.037C431.931 390.456 420.241 401.269 399.973 409.166C374.637 419.038 431.62 463.157 442.386 455.697Z" fill="#784A20"/>
<path d="M523.528 530.399C528.798 519.204 480.479 510.169 455.66 507.051C427.001 502.034 443.702 519.932 455.635 529.508C476.071 534.47 518.259 541.595 523.528 530.399Z" fill="#784A20"/>
<rect x="1177" y="1008.96" width="740.153" height="67.2866" rx="15.7358" fill="#5C320A"/>
<rect x="1177" y="977.089" width="739.585" height="62.9434" rx="15.7358" fill="#6F451F"/>
<g filter="url(#filter0_d)">
<rect x="1378.86" y="640.656" width="329.35" height="435.592" rx="146.868" fill="#090100"/>
</g>
<rect x="1435.62" y="708.177" width="236.038" height="215.057" rx="99.6604" fill="#ECECEC"/>
<rect x="1414.64" y="708.177" width="246.528" height="220.302" rx="110.151" fill="white"/>
<rect x="1435.62" y="849.799" width="236.038" height="204.566" rx="99.6604" fill="#ECECEC"/>
<rect x="1414.64" y="834.063" width="241.283" height="220.302" rx="99.6604" fill="white"/>
<path d="M1483.67 622.614C1481.17 617.953 1486.36 612.943 1490.93 615.602L1543.09 645.951C1546.1 647.701 1546.6 651.841 1544.1 654.258L1520.45 677.097C1517.94 679.514 1513.82 678.868 1512.18 675.802L1483.67 622.614Z" fill="black"/>
<path d="M1524.91 615.59C1526.79 610.821 1533.69 611.303 1534.89 616.288L1549.56 677.348C1550.39 680.795 1547.63 684.053 1544.1 683.806L1506.4 681.17C1502.86 680.923 1500.58 677.312 1501.88 674.014L1524.91 615.59Z" fill="black"/>
<path d="M1547.84 863.217C1543.85 871.357 1532.11 870.947 1528.7 862.548L1518.2 836.69C1515.34 829.646 1520.68 821.992 1528.28 822.257L1551.07 823.053C1558.67 823.319 1563.47 831.327 1560.12 838.154L1547.84 863.217Z" fill="#D76800"/>
<path d="M1549.44 856.452C1545.33 863.054 1535.72 863.054 1531.62 856.452L1518.7 835.669C1514.35 828.681 1519.38 819.639 1527.61 819.639H1553.45C1561.68 819.639 1566.7 828.681 1562.36 835.669L1549.44 856.452Z" fill="#FD7B00"/>
<rect x="1514.3" y="797.346" width="52.4528" height="26.2264" fill="white"/>
<circle cx="1506.43" cy="794.724" r="18.3585" fill="black"/>
<circle cx="1579.87" cy="794.724" r="18.3585" fill="black"/>
<circle cx="1498.57" cy="786.856" r="5.24528" fill="white"/>
<circle cx="1572" cy="786.856" r="5.24528" fill="white"/>
<ellipse cx="1485.45" cy="820.95" rx="13.1132" ry="7.86792" fill="#FF91A3"/>
<ellipse cx="1595.6" cy="820.95" rx="13.1132" ry="7.86792" fill="#FF91A3"/>
<ellipse cx="1362.07" cy="897.814" rx="31.4717" ry="78.6793" transform="rotate(21 1362.07 897.814)" fill="#090100"/>
<ellipse cx="1732.36" cy="823.624" rx="31.4717" ry="78.6792" transform="rotate(-139.5 1732.36 823.624)" fill="#090100"/>
<rect x="1822.17" y="1018.55" width="73.434" height="10.4906" fill="#814916"/>
<rect x="1197.98" y="1018.55" width="73.434" height="10.4906" fill="#814916"/>
<path d="M1551.19 733.632C1549.36 734.136 1547.43 734.136 1545.6 733.632L1466.29 711.732C1454.51 708.48 1456.86 691.129 1469.08 691.129H1627.71C1639.93 691.129 1642.28 708.48 1630.5 711.732L1551.19 733.632Z" fill="#090100"/>
<ellipse cx="1467.85" cy="1024.23" rx="31.4681" ry="56.5936" transform="rotate(16 1467.85 1024.23)" fill="#FD7B00"/>
<ellipse cx="1612.75" cy="1025.5" rx="31.4681" ry="56.5936" transform="rotate(24 1612.75 1025.5)" fill="#FD7B00"/>
<ellipse cx="1472.75" cy="1024.76" rx="27.5776" ry="56.0251" transform="rotate(16 1472.75 1024.76)" fill="#B45700"/>
<ellipse cx="1617.65" cy="1026.04" rx="27.5776" ry="56.0251" transform="rotate(24 1617.65 1026.04)" fill="#B45700"/>
</g>
<defs>
<filter id="filter0_d" x="1364.69" y="640.656" width="357.682" height="463.924" filterUnits="userSpaceOnUse" color-interpolation-filters="sRGB">
<feFlood flood-opacity="0" result="BackgroundImageFix"/>
<feColorMatrix in="SourceAlpha" type="matrix" values="0 0 0 0 0 0 0 0 0 0 0 0 0 0 0 0 0 0 127 0"/>
<feOffset dy="14.1656"/>
<feGaussianBlur stdDeviation="7.0828"/>
<feColorMatrix type="matrix" values="0 0 0 0 0 0 0 0 0 0 0 0 0 0 0 0 0 0 0.25 0"/>
<feBlend mode="normal" in2="BackgroundImageFix" result="effect1_dropShadow"/>
<feBlend mode="normal" in="SourceGraphic" in2="effect1_dropShadow" result="shape"/>
</filter>
<clipPath id="clip0">
<rect width="1920" height="1080" fill="white"/>
</clipPath>
</defs>
</svg>
