<svg width="1920" height="1080" viewBox="0 0 1920 1080" fill="none" xmlns="http://www.w3.org/2000/svg">
<g clip-path="url(#clip0)">
<rect width="1920" height="1080" fill="#FDFF9F"/>
<path d="M124.763 896.847C193.982 939.586 263.546 819.033 289.676 753.415L457.537 800.858C440.575 853.518 399.692 1006.44 446.95 1024.56C384.095 1048.64 387.707 955.607 387.041 901.177C365.75 957.564 309.375 1054.53 254.209 991.297C297.034 988.08 311.356 918.695 316.306 858.948L273.351 904.253C242.005 930.819 168.402 966.531 124.763 896.847Z" fill="#8C209F"/>
<path d="M132.995 904.102C202.19 947.668 272.7 823.208 299.305 755.532L467.441 803.355C450.11 857.642 408.184 1015.24 455.491 1033.6C392.284 1058.76 396.461 963.005 396.116 907.001C374.42 965.149 317.283 1065.26 262.31 1000.52C305.295 996.956 320.077 925.475 325.397 863.967L282.032 910.841C250.424 938.363 176.366 975.546 132.995 904.102Z" fill="#B638CC"/>
<path d="M141.481 903.82C211.721 948.363 283.662 820.534 310.852 751.052L481.654 799.747C463.92 855.474 420.962 1017.24 469.009 1035.97C404.707 1061.91 409.159 963.675 408.93 906.225C386.75 965.923 328.456 1068.74 272.717 1002.45C316.418 998.702 331.598 925.341 337.139 862.232L292.958 910.411C260.769 938.713 185.411 977.017 141.481 903.82Z" fill="#7D288C"/>
<path d="M490.373 651.545C573.122 678.727 602.738 654.495 616.088 638.478C618.308 656.047 628.921 691.84 582.535 698.486C547.272 703.539 535.839 705.988 533.8 706.979L534.221 707.516C533.448 707.458 533.156 707.291 533.8 706.979L490.373 651.545Z" fill="#C367D2"/>
<path d="M491.579 658.83C574.328 686.012 603.944 661.78 617.294 645.763C619.514 663.332 630.127 699.125 583.741 705.771C548.478 710.823 537.045 713.273 535.006 714.264L535.427 714.801C534.654 714.743 534.362 714.576 535.006 714.264L491.579 658.83Z" fill="#B155C0"/>
<circle cx="394.39" cy="692.208" r="137.113" transform="rotate(12.4026 394.39 692.208)" fill="#B544C8"/>
<path d="M556.42 857.718C559.682 813.764 507.246 758.989 480.621 737.096C476.631 747.559 464.928 771.32 450.037 782.664C431.422 796.843 484.953 823.861 511.146 860.997C537.339 898.133 480.856 940.428 497.636 938.756C514.415 937.084 552.344 912.66 556.42 857.718Z" fill="#B544C8"/>
<path d="M550.197 860.593C553.458 816.639 501.022 761.864 474.397 739.971C470.407 750.434 458.705 774.195 443.813 785.539C425.199 799.718 478.73 826.736 504.923 863.872C531.116 901.008 474.632 943.303 491.412 941.631C508.191 939.958 546.121 915.535 550.197 860.593Z" fill="#A041B0"/>
<circle cx="486.488" cy="777.734" r="9.59794" transform="rotate(65.207 486.488 777.734)" fill="#5B5B5B" fill-opacity="0.67"/>
<circle cx="504.401" cy="793.626" r="6.85567" transform="rotate(65.207 504.401 793.626)" fill="#5B5B5B" fill-opacity="0.67"/>
<circle cx="488.08" cy="815.513" r="8.91237" transform="rotate(65.207 488.08 815.513)" fill="#5B5B5B" fill-opacity="0.67"/>
<circle cx="517.91" cy="813.062" r="6.85567" transform="rotate(65.207 517.91 813.062)" fill="#5B5B5B" fill-opacity="0.67"/>
<circle cx="526.104" cy="835.707" r="8.91237" transform="rotate(65.207 526.104 835.707)" fill="#5B5B5B" fill-opacity="0.67"/>
<circle cx="509.013" cy="842.847" r="6.85567" transform="rotate(65.207 509.013 842.847)" fill="#5B5B5B" fill-opacity="0.67"/>
<circle cx="521.088" cy="868.987" r="6.85567" transform="rotate(65.207 521.088 868.987)" fill="#5B5B5B" fill-opacity="0.67"/>
<circle cx="537.939" cy="859.693" r="8.2268" transform="rotate(65.207 537.939 859.693)" fill="#5B5B5B" fill-opacity="0.67"/>
<circle cx="529.857" cy="892.877" r="8.91237" transform="rotate(65.207 529.857 892.877)" fill="#5B5B5B" fill-opacity="0.67"/>
<circle cx="517.27" cy="913.04" r="6.85567" transform="rotate(65.207 517.27 913.04)" fill="#5B5B5B" fill-opacity="0.67"/>
<circle cx="343.077" cy="977.297" r="8.91237" transform="rotate(65.207 343.077 977.297)" fill="#5B5B5B" fill-opacity="0.67"/>
<circle cx="353.678" cy="929.088" r="8.91237" transform="rotate(65.207 353.678 929.088)" fill="#5B5B5B" fill-opacity="0.67"/>
<circle cx="377.783" cy="934.389" r="8.91237" transform="rotate(65.207 377.783 934.389)" fill="#5B5B5B" fill-opacity="0.67"/>
<circle cx="423.314" cy="944.402" r="8.91237" transform="rotate(65.207 423.314 944.402)" fill="#5B5B5B" fill-opacity="0.67"/>
<circle cx="429.498" cy="916.28" r="8.91237" transform="rotate(65.207 429.498 916.28)" fill="#5B5B5B" fill-opacity="0.67"/>
<circle cx="435.093" cy="890.836" r="8.91237" transform="rotate(65.207 435.093 890.836)" fill="#5B5B5B" fill-opacity="0.67"/>
<circle cx="423.37" cy="969.684" r="8.91237" transform="rotate(65.207 423.37 969.684)" fill="#5B5B5B" fill-opacity="0.67"/>
<circle cx="373.254" cy="903.911" r="8.91237" transform="rotate(65.207 373.254 903.911)" fill="#5B5B5B" fill-opacity="0.67"/>
<circle cx="363.235" cy="879.246" r="8.91237" transform="rotate(65.207 363.235 879.246)" fill="#5B5B5B" fill-opacity="0.67"/>
<circle cx="266.58" cy="884.664" r="8.91237" transform="rotate(65.207 266.58 884.664)" fill="#5B5B5B" fill-opacity="0.67"/>
<circle cx="276.781" cy="857.426" r="8.91237" transform="rotate(65.207 276.781 857.426)" fill="#5B5B5B" fill-opacity="0.67"/>
<circle cx="234.229" cy="916.859" r="8.91237" transform="rotate(65.207 234.229 916.859)" fill="#5B5B5B" fill-opacity="0.67"/>
<circle cx="176.246" cy="925.166" r="8.91237" transform="rotate(65.207 176.246 925.166)" fill="#5B5B5B" fill-opacity="0.67"/>
<circle cx="201.395" cy="932.101" r="8.91237" transform="rotate(65.207 201.395 932.101)" fill="#5B5B5B" fill-opacity="0.67"/>
<circle cx="361.18" cy="958.816" r="8.91237" transform="rotate(65.207 361.18 958.816)" fill="#5B5B5B" fill-opacity="0.67"/>
<circle cx="261.734" cy="913.08" r="8.91237" transform="rotate(65.207 261.734 913.08)" fill="#5B5B5B" fill-opacity="0.67"/>
<circle cx="308.625" cy="865.833" r="8.91237" transform="rotate(65.207 308.625 865.833)" fill="#5B5B5B" fill-opacity="0.67"/>
<circle cx="436.549" cy="1011.89" r="8.91237" transform="rotate(65.207 436.549 1011.89)" fill="#5B5B5B" fill-opacity="0.67"/>
<circle cx="310.271" cy="1005.18" r="8.91237" transform="rotate(65.207 310.271 1005.18)" fill="#5B5B5B" fill-opacity="0.67"/>
<circle cx="604.892" cy="674.636" r="8.32708" transform="rotate(65.207 604.892 674.636)" fill="#5B5B5B" fill-opacity="0.67"/>
<circle cx="591.427" cy="692.596" r="6.2743" transform="rotate(65.207 591.427 692.596)" fill="#5B5B5B" fill-opacity="0.67"/>
<circle cx="542.472" cy="689.827" r="8.91237" transform="rotate(65.207 542.472 689.827)" fill="#5B5B5B" fill-opacity="0.67"/>
<circle cx="567.005" cy="686.798" r="8.91237" transform="rotate(65.207 567.005 686.798)" fill="#5B5B5B" fill-opacity="0.67"/>
<path d="M162.692 662.728C193.702 631.407 269.444 634.988 303.439 640.694C298.168 650.573 287.931 675.002 289.154 693.682C290.682 717.032 235.155 694.398 189.947 699.028C144.739 703.657 149.929 774.029 140.172 760.276C130.415 746.523 123.93 701.879 162.692 662.728Z" fill="#B544C8"/>
<path d="M164.611 669.31C195.62 637.989 271.362 641.57 305.357 647.276C300.086 657.155 289.849 681.583 291.072 700.263C292.601 723.613 237.074 700.98 191.866 705.609C146.658 710.239 151.847 780.611 142.091 766.858C132.334 753.104 125.849 708.461 164.611 669.31Z" fill="#A041B0"/>
<circle r="9.59794" transform="matrix(-0.960049 0.279832 0.279832 0.960049 268.936 662.953)" fill="#5B5B5B" fill-opacity="0.67"/>
<circle r="6.85567" transform="matrix(-0.960049 0.279832 0.279832 0.960049 245.189 659.877)" fill="#5B5B5B" fill-opacity="0.67"/>
<circle r="8.91237" transform="matrix(-0.960049 0.279832 0.279832 0.960049 239.398 686.558)" fill="#5B5B5B" fill-opacity="0.67"/>
<circle r="6.85567" transform="matrix(-0.960049 0.279832 0.279832 0.960049 221.659 662.451)" fill="#5B5B5B" fill-opacity="0.67"/>
<circle r="8.91237" transform="matrix(-0.960049 0.279832 0.279832 0.960049 199.199 671.14)" fill="#5B5B5B" fill-opacity="0.67"/>
<circle r="6.85567" transform="matrix(-0.960049 0.279832 0.279832 0.960049 205.037 688.719)" fill="#5B5B5B" fill-opacity="0.67"/>
<circle r="6.85567" transform="matrix(-0.960049 0.279832 0.279832 0.960049 177.394 696.776)" fill="#5B5B5B" fill-opacity="0.67"/>
<circle r="8.2268" transform="matrix(-0.960049 0.279832 0.279832 0.960049 173.339 677.964)" fill="#5B5B5B" fill-opacity="0.67"/>
<circle r="8.91237" transform="matrix(-0.960049 0.279832 0.279832 0.960049 153.617 705.849)" fill="#5B5B5B" fill-opacity="0.67"/>
<circle r="6.85567" transform="matrix(-0.960049 0.279832 0.279832 0.960049 146.674 728.581)" fill="#5B5B5B" fill-opacity="0.67"/>
<circle cx="406.441" cy="694.859" r="137.113" transform="rotate(12.4026 406.441 694.859)" fill="#9C2DAF"/>
<path d="M422.442 761.686C397.685 784.426 353.788 734.845 334.934 707.211L464.83 735.777C461.016 734.938 447.199 738.946 422.442 761.686Z" fill="black"/>
<circle cx="387.288" cy="641.51" r="20.567" transform="rotate(12.4026 387.288 641.51)" fill="#DCD300" fill-opacity="0.85"/>
<circle cx="481.028" cy="662.125" r="20.567" transform="rotate(12.4026 481.028 662.125)" fill="#DCD300" fill-opacity="0.85"/>
<circle cx="383.926" cy="634.453" r="7.54124" transform="rotate(12.4026 383.926 634.453)" fill="white"/>
<circle cx="476.326" cy="654.773" r="7.54124" transform="rotate(12.4026 476.326 654.773)" fill="white"/>
<path d="M377.75 739.562L371.476 715.234L393.579 720.052L377.75 739.562Z" fill="white"/>
<path d="M400.581 445.471C376.46 415.059 358.583 509.635 353.274 562.965C385.075 572.148 458.406 594.875 486.872 581.282C515.338 567.689 508.259 487.712 498.293 453.231C474.724 462.789 424.702 475.884 400.581 445.471Z" fill="#6F3E10"/>
<path d="M593.298 632.03C574.977 638.62 365.821 605.17 263.533 587.621C231.794 580.641 189.489 561.187 274.179 539.208C358.869 517.229 505.937 562.585 571.641 586.664C600.915 597.392 611.618 625.439 593.298 632.03Z" fill="#804713"/>
<path d="M592.073 635.081C574.001 640.654 365.408 606.06 263.371 588.066C231.678 581.097 189.222 562.635 272.942 544.544C356.661 526.454 503.789 570.508 569.599 593.638C598.92 603.943 610.145 629.509 592.073 635.081Z" fill="#572D06"/>
<path d="M403.714 450.555C380.148 421.214 362.981 512.22 357.947 563.55C388.938 572.472 460.404 594.539 488.09 581.525C515.775 568.512 508.677 491.497 498.884 458.275C475.958 467.416 427.281 479.896 403.714 450.555Z" fill="#5E340E"/>
<path d="M506.406 556.155C507.62 594.046 409.398 570.621 360.135 554.172C354.769 548.78 346.919 536.384 358.446 529.934C372.854 521.871 503.633 546.42 506.406 556.155Z" fill="#A50000" stroke="#B41616" stroke-width="1.37113"/>
<path d="M498.386 541.697C506.998 535.729 497.212 492.77 491.242 472.037C487.931 476.456 476.24 487.269 455.972 495.166C430.637 505.038 487.62 549.157 498.386 541.697Z" fill="#784A20"/>
<path d="M579.528 616.399C584.798 605.204 536.478 596.169 511.66 593.051C483 588.034 499.702 605.932 511.635 615.508C532.07 620.47 574.258 627.595 579.528 616.399Z" fill="#784A20"/>
<ellipse cx="367" cy="149" rx="198" ry="89" fill="#FF7F63"/>
<ellipse cx="1158.5" cy="149" rx="197.5" ry="89" fill="#FF7F63"/>
<ellipse cx="763" cy="149" rx="198" ry="89" fill="#FF7F63"/>
<ellipse cx="1554" cy="149" rx="198" ry="89" fill="#FF7F63"/>
<rect width="170" height="1080" fill="#FFDA79"/>
<rect x="1755" width="165" height="1076" fill="#FFDA79"/>
<rect x="165" width="1590" height="170" fill="#FFDA79"/>
<path d="M260.016 335.52C260.658 338.706 257.433 341.287 254.465 339.963L137.293 287.693C134.557 286.473 134.084 282.789 136.423 280.918L228.27 207.408C230.608 205.537 234.099 206.805 234.69 209.742L260.016 335.52Z" fill="#D9A8FF"/>
<path d="M260.016 335.52C260.658 338.706 257.433 341.287 254.465 339.963L137.293 287.693C134.557 286.473 134.084 282.789 136.423 280.918L228.27 207.408C230.608 205.537 234.099 206.805 234.69 209.742L260.016 335.52Z" stroke="black"/>
<path d="M1666.23 366.52C1665.59 369.706 1668.82 372.287 1671.78 370.963L1788.96 318.693C1791.69 317.473 1792.17 313.789 1789.83 311.918L1697.98 238.408C1695.64 236.537 1692.15 237.805 1691.56 240.742L1666.23 366.52Z" fill="#99BCFF"/>
<path d="M1666.23 366.52C1665.59 369.706 1668.82 372.287 1671.78 370.963L1788.96 318.693C1791.69 317.473 1792.17 313.789 1789.83 311.918L1697.98 238.408C1695.64 236.537 1692.15 237.805 1691.56 240.742L1666.23 366.52Z" stroke="black"/>
<path d="M103.146 440.241C102.594 443.443 98.655 444.685 96.3654 442.379L5.97718 351.321C3.86681 349.195 4.75619 345.589 7.61312 344.688L119.809 309.31C122.666 308.409 125.463 310.853 124.953 313.805L103.146 440.241Z" fill="#A4FFFA"/>
<path d="M103.146 440.241C102.594 443.443 98.655 444.685 96.3654 442.379L5.97718 351.321C3.86681 349.195 4.75619 345.589 7.61312 344.688L119.809 309.31C122.666 308.409 125.463 310.853 124.953 313.805L103.146 440.241Z" stroke="black"/>
<path d="M1823.1 471.241C1823.66 474.443 1827.6 475.685 1829.88 473.379L1920.27 382.321C1922.38 380.195 1921.49 376.589 1918.64 375.688L1806.44 340.31C1803.58 339.409 1800.79 341.853 1801.3 344.805L1823.1 471.241Z" fill="#A4FFFA"/>
<path d="M1823.1 471.241C1823.66 474.443 1827.6 475.685 1829.88 473.379L1920.27 382.321C1922.38 380.195 1921.49 376.589 1918.64 375.688L1806.44 340.31C1803.58 339.409 1800.79 341.853 1801.3 344.805L1823.1 471.241Z" stroke="black"/>
<path d="M391.03 212.266C392.519 215.154 390.124 218.519 386.907 218.057L259.904 199.841C256.939 199.415 255.476 196.002 257.213 193.561L325.444 97.7279C327.182 95.2876 330.886 95.5528 332.258 98.2156L391.03 212.266Z" fill="#FF5E5E"/>
<path d="M391.03 212.266C392.519 215.154 390.124 218.519 386.907 218.057L259.904 199.841C256.939 199.415 255.476 196.002 257.213 193.561L325.444 97.7279C327.182 95.2876 330.886 95.5528 332.258 98.2156L391.03 212.266Z" stroke="black"/>
<path d="M1535.22 243.266C1533.73 246.154 1536.13 249.519 1539.34 249.057L1666.35 230.841C1669.31 230.415 1670.77 227.002 1669.04 224.561L1600.81 128.728C1599.07 126.288 1595.36 126.553 1593.99 129.216L1535.22 243.266Z" fill="#8DFFA6"/>
<path d="M1535.22 243.266C1533.73 246.154 1536.13 249.519 1539.34 249.057L1666.35 230.841C1669.31 230.415 1670.77 227.002 1669.04 224.561L1600.81 128.728C1599.07 126.288 1595.36 126.553 1593.99 129.216L1535.22 243.266Z" stroke="black"/>
<path d="M467.909 84.6296C469.398 87.5185 467.002 90.8828 463.785 90.4214L336.782 72.2048C333.817 71.7795 332.354 68.3657 334.092 65.9254L402.323 -29.908C404.06 -32.3483 407.764 -32.0832 409.137 -29.4204L467.909 84.6296Z" fill="#B2FF75"/>
<path d="M467.909 84.6296C469.398 87.5185 467.002 90.8828 463.785 90.4214L336.782 72.2048C333.817 71.7795 332.354 68.3657 334.092 65.9254L402.323 -29.908C404.06 -32.3483 407.764 -32.0832 409.137 -29.4204L467.909 84.6296Z" stroke="black"/>
<path d="M1458.34 115.63C1456.85 118.518 1459.25 121.883 1462.46 121.421L1589.47 103.205C1592.43 102.779 1593.9 99.3657 1592.16 96.9254L1523.93 1.09197C1522.19 -1.34831 1518.49 -1.0832 1517.11 1.57963L1458.34 115.63Z" fill="#FF8BF3"/>
<path d="M1458.34 115.63C1456.85 118.518 1459.25 121.883 1462.46 121.421L1589.47 103.205C1592.43 102.779 1593.9 99.3657 1592.16 96.9254L1523.93 1.09197C1522.19 -1.34831 1518.49 -1.0832 1517.11 1.57963L1458.34 115.63Z" stroke="black"/>
<rect x="170" y="910" width="1590" height="170" fill="#FFDA79"/>
<rect x="1129" y="924.962" width="740.153" height="67.2866" rx="15.7358" fill="#5C320A"/>
<rect x="1129" y="893.089" width="739.585" height="62.9434" rx="15.7358" fill="#6F451F"/>
<g filter="url(#filter0_d)">
<rect x="1330.86" y="556.656" width="329.35" height="435.592" rx="146.868" fill="#090100"/>
</g>
<rect x="1387.62" y="624.177" width="236.038" height="215.057" rx="99.6604" fill="#ECECEC"/>
<rect x="1366.64" y="624.177" width="246.528" height="220.302" rx="110.151" fill="white"/>
<rect x="1387.62" y="765.799" width="236.038" height="204.566" rx="99.6604" fill="#ECECEC"/>
<rect x="1366.64" y="750.063" width="241.283" height="220.302" rx="99.6604" fill="white"/>
<path d="M1435.67 538.614C1433.17 533.953 1438.36 528.943 1442.93 531.602L1495.09 561.951C1498.1 563.701 1498.6 567.841 1496.1 570.258L1472.45 593.097C1469.94 595.514 1465.82 594.868 1464.18 591.802L1435.67 538.614Z" fill="black"/>
<path d="M1476.91 531.59C1478.79 526.821 1485.69 527.303 1486.89 532.288L1501.56 593.348C1502.39 596.795 1499.63 600.053 1496.1 599.806L1458.4 597.17C1454.86 596.923 1452.58 593.312 1453.88 590.014L1476.91 531.59Z" fill="black"/>
<path d="M1499.84 779.217C1495.85 787.357 1484.11 786.947 1480.7 778.548L1470.2 752.69C1467.34 745.646 1472.68 737.992 1480.28 738.258L1503.07 739.053C1510.67 739.319 1515.47 747.327 1512.12 754.154L1499.84 779.217Z" fill="#D76800"/>
<path d="M1501.44 772.452C1497.33 779.054 1487.72 779.054 1483.62 772.452L1470.7 751.669C1466.35 744.681 1471.38 735.639 1479.61 735.639H1505.45C1513.68 735.639 1518.7 744.681 1514.36 751.669L1501.44 772.452Z" fill="#FD7B00"/>
<rect x="1466.3" y="713.346" width="52.4528" height="26.2264" fill="white"/>
<circle cx="1458.43" cy="710.724" r="18.3585" fill="black"/>
<circle cx="1531.87" cy="710.724" r="18.3585" fill="black"/>
<circle cx="1450.57" cy="702.856" r="5.24528" fill="white"/>
<circle cx="1524" cy="702.856" r="5.24528" fill="white"/>
<ellipse cx="1437.45" cy="736.95" rx="13.1132" ry="7.86792" fill="#FF91A3"/>
<ellipse cx="1547.6" cy="736.95" rx="13.1132" ry="7.86792" fill="#FF91A3"/>
<ellipse cx="1314.07" cy="813.814" rx="31.4717" ry="78.6793" transform="rotate(21 1314.07 813.814)" fill="#090100"/>
<ellipse cx="1684.36" cy="739.624" rx="31.4717" ry="78.6792" transform="rotate(-139.5 1684.36 739.624)" fill="#090100"/>
<rect x="1774.17" y="934.55" width="73.434" height="10.4906" fill="#814916"/>
<rect x="1149.98" y="934.55" width="73.434" height="10.4906" fill="#814916"/>
<path d="M1503.19 649.632C1501.36 650.136 1499.43 650.136 1497.6 649.632L1418.29 627.732C1406.51 624.48 1408.86 607.129 1421.08 607.129H1579.71C1591.93 607.129 1594.28 624.48 1582.5 627.732L1503.19 649.632Z" fill="#090100"/>
<ellipse cx="1419.85" cy="940.228" rx="31.4681" ry="56.5936" transform="rotate(16 1419.85 940.228)" fill="#FD7B00"/>
<ellipse cx="1564.75" cy="941.5" rx="31.4681" ry="56.5936" transform="rotate(24 1564.75 941.5)" fill="#FD7B00"/>
<ellipse cx="1424.75" cy="940.763" rx="27.5776" ry="56.0251" transform="rotate(16 1424.75 940.763)" fill="#B45700"/>
<ellipse cx="1569.65" cy="942.036" rx="27.5776" ry="56.0251" transform="rotate(24 1569.65 942.036)" fill="#B45700"/>
</g>
<defs>
<filter id="filter0_d" x="1316.69" y="556.656" width="357.682" height="463.924" filterUnits="userSpaceOnUse" color-interpolation-filters="sRGB">
<feFlood flood-opacity="0" result="BackgroundImageFix"/>
<feColorMatrix in="SourceAlpha" type="matrix" values="0 0 0 0 0 0 0 0 0 0 0 0 0 0 0 0 0 0 127 0"/>
<feOffset dy="14.1656"/>
<feGaussianBlur stdDeviation="7.0828"/>
<feColorMatrix type="matrix" values="0 0 0 0 0 0 0 0 0 0 0 0 0 0 0 0 0 0 0.25 0"/>
<feBlend mode="normal" in2="BackgroundImageFix" result="effect1_dropShadow"/>
<feBlend mode="normal" in="SourceGraphic" in2="effect1_dropShadow" result="shape"/>
</filter>
<clipPath id="clip0">
<rect width="1920" height="1080" fill="white"/>
</clipPath>
</defs>
</svg>
