<svg width="118" height="76" viewBox="0 0 118 76" fill="none" xmlns="http://www.w3.org/2000/svg">
<rect x="3" width="112" height="68" rx="2" fill="#999999"/>
<rect x="12" y="8" width="94" height="52" fill="white"/>
<rect y="65" width="118" height="11" rx="2" fill="#CACACA"/>
<path d="M58.2598 45H55.5645V35.1416H46.9805V45H44.2998V23.6719H46.9805V32.8418H55.5645V23.6719H58.2598V45ZM65.335 45H62.7422V29.1504H65.335V45ZM65.54 24.9463C65.54 25.3857 65.418 25.752 65.1738 26.0449C64.9297 26.3379 64.5586 26.4844 64.0605 26.4844C63.5723 26.4844 63.2061 26.3379 62.9619 26.0449C62.7178 25.752 62.5957 25.3857 62.5957 24.9463C62.5957 24.5068 62.7178 24.1357 62.9619 23.833C63.2061 23.5303 63.5723 23.3789 64.0605 23.3789C64.5488 23.3789 64.915 23.5352 65.1592 23.8477C65.4131 24.1504 65.54 24.5166 65.54 24.9463ZM72.3516 38.9795H70.0225L69.832 23.6719H72.5566L72.3516 38.9795ZM71.2529 42.085C71.7412 42.085 72.1074 42.2363 72.3516 42.5391C72.6055 42.832 72.7324 43.1982 72.7324 43.6377C72.7324 44.0771 72.6055 44.4434 72.3516 44.7363C72.1074 45.0195 71.7412 45.1611 71.2529 45.1611C70.7549 45.1611 70.3838 45.0195 70.1396 44.7363C69.8955 44.4434 69.7734 44.0771 69.7734 43.6377C69.7734 43.1982 69.8955 42.832 70.1396 42.5391C70.3838 42.2363 70.7549 42.085 71.2529 42.085Z" fill="#A4A4A4"/>
</svg>
