<svg width="56" height="98" viewBox="0 0 56 98" fill="none" xmlns="http://www.w3.org/2000/svg">
<rect x="0.5" y="0.5" width="55" height="97" rx="4.5" fill="#CACACA" stroke="#A0A0A0"/>
<rect x="6.5" y="8.5" width="43" height="75" rx="0.5" fill="url(#paint0_linear)" stroke="#919191"/>
<circle cx="28" cy="91" r="4.5" fill="white" stroke="#989898"/>
<path d="M27.8398 54H26.043V47.4277H20.3203V54H18.5332V39.7812H20.3203V45.8945H26.043V39.7812H27.8398V54ZM32.5566 54H30.8281V43.4336H32.5566V54ZM32.6934 40.6309C32.6934 40.9238 32.612 41.168 32.4492 41.3633C32.2865 41.5586 32.0391 41.6562 31.707 41.6562C31.3815 41.6562 31.1374 41.5586 30.9746 41.3633C30.8118 41.168 30.7305 40.9238 30.7305 40.6309C30.7305 40.3379 30.8118 40.0905 30.9746 39.8887C31.1374 39.6868 31.3815 39.5859 31.707 39.5859C32.0326 39.5859 32.2767 39.6901 32.4395 39.8984C32.6087 40.1003 32.6934 40.3444 32.6934 40.6309ZM37.2344 49.9863H35.6816L35.5547 39.7812H37.3711L37.2344 49.9863ZM36.502 52.0566C36.8275 52.0566 37.0716 52.1576 37.2344 52.3594C37.4036 52.5547 37.4883 52.7988 37.4883 53.0918C37.4883 53.3848 37.4036 53.6289 37.2344 53.8242C37.0716 54.013 36.8275 54.1074 36.502 54.1074C36.1699 54.1074 35.9225 54.013 35.7598 53.8242C35.597 53.6289 35.5156 53.3848 35.5156 53.0918C35.5156 52.7988 35.597 52.5547 35.7598 52.3594C35.9225 52.1576 36.1699 52.0566 36.502 52.0566Z" fill="#A4A4A4"/>
<circle cx="51" cy="5" r="2" fill="#656565"/>
<defs>
<linearGradient id="paint0_linear" x1="8.5" y1="37.2703" x2="50.0028" y2="38.7309" gradientUnits="userSpaceOnUse">
<stop stop-color="white"/>
<stop offset="1" stop-color="#F8F8F8"/>
</linearGradient>
</defs>
</svg>
