<svg width="728" height="689" viewBox="0 0 728 689" fill="none" xmlns="http://www.w3.org/2000/svg">
<path d="M256 426.5L270.5 432.5L290.5 440.5L322.5 445.5L352 436.5L369 426.5L382.5 413.5L393 397L399.5 385.5V379L412.5 436.5L427.5 496.5L444.5 568L457.5 625.5L472 687" stroke="#717171"/>
<path d="M255 426.5L260.5 456L269 483L279.5 515L290.5 557C292.167 567 295.7 587.5 296.5 589.5C297.3 591.5 303.5 620.333 306.5 634.5L311 669.5L313.5 686" stroke="#717171"/>
<path d="M170.5 188.5L174 184.5L181.5 192L185 196.5L192.5 184.5V170L195.5 154L199 136V120.5L193.5 107.5L196.5 100L208.5 91L222.5 77.5L236 68.5L253 62.5L269.5 59H298L320 62.5H344.5L365 71L379 88.5L387 107.5V124L382.5 136L389.5 152L397.5 166.5L404 182L406 188.5L414 179.5L418.5 182V194L416.5 198.5L418.5 210H420.5" stroke="#717171"/>
<path d="M212 259.5L189.5 205.5L193 259.5L209 315L223 340L241 366.5L262.5 386.5L289.5 397H316.5L340 392.5L364 378.5L387 352L405 312.5L409.5 297V255.5L405 200.5L396 251.5L380.5 266L364 289.5L357 266L347 255.5L328 251.5H300.5L268.5 255.5L254.5 266L248 289.5L229 259.5H212Z" stroke="#717171"/>
<path d="M1 657L12.5 686L727.5 687.5V530.5L713 515.5L695.5 503.5L686.5 487L670.5 479.5L660.5 462L641.5 435.5L613 422.5L601.5 402.5L577.5 370L552.5 360L436.5 338L405.5 311.5L410.5 294.5V255.5L421 236V212L435 187.5L427.5 147L424.5 107.5L404 66.5L363 27.5L323.5 6L277 1L257 4L232.5 35L209 40L185 54L166.5 75L158.5 105.5L155 149.5L160 176L170 188.5V224.5L173.5 237.5L179 251L192.5 259.5L209 314L207.5 318.5L187.5 370L165 379L108 407.5L68.5 424L39 437.5L12.5 453.5L3.5 466V488.5L6 510.5L3.5 534V563L6 580L3.5 611L1 627V657Z" stroke="#717171"/>
<path d="M239.5 686.5C228 659.667 204.8 605.3 204 602.5C203.2 599.7 186.333 550 178 525.5L223.5 489L166 475.5L172.5 436L187 369.5" stroke="#717171"/>
<path d="M19.5 451H29L37.5 454L46.5 463L54.5 483L61.5 499L73.5 531.5L86 556L102.5 585C106.5 591.667 114.8 605.5 116 607.5C117.2 609.5 125.5 627 129.5 635.5L146 661L158.5 680.5L162 687" stroke="#717171"/>
<path d="M548 361L563 372.5L575.5 394L598 441.5L613.5 490V545.5L626 603.5L635 687" stroke="#717171"/>
<path d="M289 301.5L287 293H330.5V298.5V304L326 307.5L322.5 306L318.5 311L316 314H309.5L305 316.5L300 314H294.5L292.5 307.5L289 301.5Z" stroke="#717171"/>
<path d="M255 426L241.5 401.5L229 373.5L223.5 353.5V339.5" stroke="#717171"/>
<path d="M398.5 383V358.5V343L394 338.5" stroke="#717171"/>
</svg>
