<svg width="733" height="694" viewBox="0 0 733 694" fill="none" xmlns="http://www.w3.org/2000/svg">
<path d="M258 429.5L272.5 435.5L292.5 443.5L324.5 448.5L354 439.5L371 429.5L384.5 416.5L395 400L401.5 388.5V382L414.5 439.5L429.5 499.5L446.5 571L459.5 628.5L474 690" stroke="#049DD9" stroke-width="6"/>
<path d="M257 429.5L262.5 459L271 486L281.5 518L292.5 560C294.167 570 297.7 590.5 298.5 592.5C299.3 594.5 305.5 623.333 308.5 637.5L313 672.5L315.5 689" stroke="#049DD9" stroke-width="6"/>
<path d="M172.5 191.5L176 187.5L183.5 195L187 199.5L194.5 187.5V173L197.5 157L201 139V123.5L195.5 110.5L198.5 103L210.5 94L224.5 80.5L238 71.5L255 65.5L271.5 62H300L322 65.5H346.5L367 74L381 91.5L389 110.5V127L384.5 139L391.5 155L399.5 169.5L406 185L408 191.5L416 182.5L420.5 185V197L418.5 201.5L420.5 213H422.5" stroke="#049DD9" stroke-width="6"/>
<path d="M214 262.5L191.5 208.5L195 262.5L211 318L225 343L243 369.5L264.5 389.5L291.5 400H318.5L342 395.5L366 381.5L389 355L407 315.5L411.5 300V258.5L407 203.5L398 254.5L382.5 269L366 292.5L359 269L349 258.5L330 254.5H302.5L270.5 258.5L256.5 269L250 292.5L231 262.5H214Z" stroke="#049DD9" stroke-width="6"/>
<path d="M3 660L14.5 689L729.5 690.5V533.5L715 518.5L697.5 506.5L688.5 490L672.5 482.5L662.5 465L643.5 438.5L615 425.5L603.5 405.5L579.5 373L554.5 363L438.5 341L407.5 314.5L412.5 297.5V258.5L423 239V215L437 190.5L429.5 150L426.5 110.5L406 69.5L365 30.5L325.5 9L279 4L259 7L234.5 38L211 43L187 57L168.5 78L160.5 108.5L157 152.5L162 179L172 191.5V227.5L175.5 240.5L181 254L194.5 262.5L211 317L209.5 321.5L189.5 373L167 382L110 410.5L70.5 427L41 440.5L14.5 456.5L5.5 469V491.5L8 513.5L5.5 537V566L8 583L5.5 614L3 630V660Z" stroke="#049DD9" stroke-width="6"/>
<path d="M241.5 689.5C230 662.667 206.8 608.3 206 605.5C205.2 602.7 188.333 553 180 528.5L225.5 492L168 478.5L174.5 439L189 372.5" stroke="#049DD9" stroke-width="6"/>
<path d="M21.5 454H31L39.5 457L48.5 466L56.5 486L63.5 502L75.5 534.5L88 559L104.5 588C108.5 594.667 116.8 608.5 118 610.5C119.2 612.5 127.5 630 131.5 638.5L148 664L160.5 683.5L164 690" stroke="#049DD9" stroke-width="6"/>
<path d="M550 364L565 375.5L577.5 397L600 444.5L615.5 493V548.5L628 606.5L637 690" stroke="#049DD9" stroke-width="6"/>
<path d="M291 304.5L289 296H332.5V301.5V307L328 310.5L324.5 309L320.5 314L318 317H311.5L307 319.5L302 317H296.5L294.5 310.5L291 304.5Z" stroke="#049DD9" stroke-width="6"/>
<path d="M257 429L243.5 404.5L231 376.5L225.5 356.5V342.5" stroke="#049DD9" stroke-width="6"/>
<path d="M400.5 386V361.5V346L396 341.5" stroke="#049DD9" stroke-width="6"/>
</svg>
