<svg width="592" height="273" viewBox="0 0 592 273" fill="none" xmlns="http://www.w3.org/2000/svg">
<rect x="40" y="256.46" width="171.044" height="15.9854" rx="4.79562" fill="#5C320A"/>
<rect x="40" y="250.066" width="171.044" height="19.1825" rx="4.79562" fill="#6F451F"/>
<ellipse cx="96.854" cy="255.661" rx="7.76814" ry="15.7813" transform="rotate(80 96.854 255.661)" fill="#D76800"/>
<ellipse cx="152.803" cy="255.661" rx="7.76814" ry="15.7813" transform="rotate(-80 152.803 255.661)" fill="#D76800"/>
<ellipse cx="95.2555" cy="255.661" rx="7.76814" ry="15.7813" transform="rotate(80 95.2555 255.661)" fill="#FD7B00"/>
<ellipse cx="154.401" cy="255.661" rx="7.76814" ry="15.7813" transform="rotate(-80 154.401 255.661)" fill="#FD7B00"/>
<rect x="73.5693" y="118.985" width="100.708" height="137.474" rx="44.7591" fill="#090100"/>
<rect x="91.1533" y="139.766" width="71.9343" height="65.5401" rx="30.3723" fill="#ECECEC"/>
<rect x="84.7592" y="139.766" width="75.1314" height="67.1387" rx="33.5693" fill="white"/>
<rect x="91.1533" y="182.927" width="71.9343" height="62.3431" rx="30.3723" fill="#ECECEC"/>
<rect x="84.7592" y="178.131" width="73.5328" height="67.1387" rx="30.3723" fill="white"/>
<path d="M105.796 113.691C105.035 112.27 106.616 110.743 108.009 111.554L123.906 120.803C124.822 121.336 124.975 122.598 124.212 123.334L117.004 130.295C116.242 131.031 114.986 130.835 114.485 129.9L105.796 113.691Z" fill="black"/>
<path d="M118.365 111.55C118.938 110.096 121.041 110.244 121.406 111.763L125.878 130.371C126.13 131.422 125.289 132.415 124.212 132.339L112.723 131.536C111.645 131.461 110.951 130.36 111.347 129.355L118.365 111.55Z" fill="black"/>
<path d="M125.353 187.016C124.137 189.497 120.56 189.372 119.52 186.812L116.319 178.932C115.447 176.785 117.077 174.453 119.392 174.533L126.337 174.776C128.652 174.857 130.116 177.297 129.096 179.378L125.353 187.016Z" fill="#D76800"/>
<path d="M125.839 184.954C124.588 186.966 121.66 186.966 120.409 184.954L116.471 178.621C115.147 176.491 116.678 173.735 119.186 173.735H127.062C129.57 173.735 131.101 176.491 129.777 178.621L125.839 184.954Z" fill="#FD7B00"/>
<rect x="115.131" y="166.942" width="15.9854" height="7.9927" fill="white"/>
<circle cx="112.734" cy="166.142" r="5.59489" fill="black"/>
<circle cx="135.113" cy="166.142" r="5.59489" fill="black"/>
<circle cx="110.336" cy="163.745" r="1.59854" fill="white"/>
<circle cx="132.715" cy="163.745" r="1.59854" fill="white"/>
<rect x="83.1606" y="140.259" width="36.4664" height="12.0131" rx="6.00652" transform="rotate(-16 83.1606 140.259)" fill="#090100"/>
<rect x="128.043" y="130.175" width="36.585" height="12.0471" rx="6.02354" transform="rotate(16 128.043 130.175)" fill="#090100"/>
<path d="M124.589 147.478C123.339 148.731 121.31 148.731 120.061 147.478L114.613 142.015C112.603 140 114.03 136.56 116.877 136.56H127.773C130.619 136.56 132.047 140 130.037 142.015L124.589 147.478Z" fill="#090100"/>
<ellipse cx="106.339" cy="174.135" rx="3.99635" ry="2.39781" fill="#FF91A3"/>
<ellipse cx="139.909" cy="174.135" rx="3.99635" ry="2.39781" fill="#FF91A3"/>
<ellipse cx="182.211" cy="191.742" rx="9.59124" ry="23.9781" transform="rotate(-38 182.211 191.742)" fill="#090100"/>
<rect x="180.672" y="254.861" width="22.3796" height="3.19708" fill="#814916"/>
<rect x="46.3942" y="254.861" width="22.3796" height="3.19708" fill="#814916"/>
<path d="M299.842 223.268C301.98 224.631 301.757 227.82 299.45 228.873L267.486 243.452C265.28 244.459 262.801 242.739 262.97 240.321L265.31 206.854C265.479 204.435 268.174 203.078 270.218 204.381L299.842 223.268Z" fill="#FACA84"/>
<rect x="3.27026" y="184.514" width="22.3796" height="41.562" rx="6.39416" transform="rotate(4 3.27026 184.514)" fill="#FF8095"/>
<rect x="19.2167" y="185.629" width="254.168" height="14.3869" rx="7.19343" transform="rotate(4 19.2167 185.629)" fill="#FCA834"/>
<rect x="18.2131" y="199.981" width="254.168" height="12.7883" rx="6.39416" transform="rotate(4 18.2131 199.981)" fill="#EB9A2B"/>
<rect x="17.321" y="212.738" width="254.168" height="14.3869" rx="7.19343" transform="rotate(4 17.321 212.738)" fill="#D88A1F"/>
<rect x="19.2167" y="185.629" width="12.7883" height="41.562" transform="rotate(4 19.2167 185.629)" fill="#945F40"/>
<line x1="32.7712" y1="186.577" x2="29.872" y2="228.038" stroke="#734B34" stroke-width="1.59854"/>
<path d="M306.398 226.542L291.563 232.444L292.529 218.634L306.398 226.542Z" fill="black"/>
<ellipse cx="67.7541" cy="190.585" rx="9.59124" ry="23.9781" transform="rotate(34 67.7541 190.585)" fill="#090100"/>
<path d="M441 176C496.5 189 601.5 175 571.5 128.5" stroke="#3F3F3F" stroke-width="6"/>
<path d="M328.997 90.0606C323.614 134.169 244.776 148.67 206.03 150.406C291.458 180.807 358.775 122.358 381.756 89.333C384.517 89.1934 377.83 89.1435 328.997 90.0606Z" fill="white" stroke="#3F3F3F" stroke-width="2.83429"/>
<path d="M226.061 65.5714C224.128 74.0383 226.869 83.3297 233.855 92.9826C240.838 102.633 251.963 112.494 266.453 121.979C295.422 140.944 337.573 158.236 386.037 169.302C434.502 180.367 479.981 183.083 514.31 178.571C531.481 176.314 545.783 172.259 556.263 166.596C566.746 160.931 573.248 153.75 575.181 145.283C577.114 136.816 574.373 127.525 567.388 117.872C560.404 108.222 549.279 98.3611 534.79 88.8755C505.821 69.9107 463.67 52.6185 415.205 41.5529C366.741 30.4874 321.261 27.7717 286.932 32.284C269.762 34.5409 255.459 38.5961 244.979 44.259C234.497 49.9236 227.995 57.1046 226.061 65.5714Z" fill="white" stroke="#4B4B4B" stroke-width="2.83429"/>
<path d="M262.613 95.4507C262.105 96.3749 261.529 97.1928 260.885 97.9042C260.254 98.5575 259.663 98.8847 259.115 98.8858C257.946 98.9333 257.142 98.5734 256.701 97.8061C256.261 97.0387 256.207 96.1737 256.541 95.2111C257.774 91.8258 259.336 88.33 261.226 84.7239C263.13 81.0596 265.202 77.4628 267.441 73.9334C269.694 70.3458 272.03 66.9292 274.451 63.6836C276.943 60.3925 279.387 57.4567 281.783 54.876C282.176 54.4749 282.554 54.2837 282.915 54.3024C283.348 54.2757 283.697 54.3525 283.962 54.5327C284.303 54.3641 284.697 54.2375 285.142 54.1526C285.588 54.0678 286.014 54.0702 286.421 54.1598C286.595 54.1982 286.763 54.2656 286.925 54.3621C287.144 54.4714 287.338 54.697 287.507 55.0388C287.675 55.3806 287.841 55.8742 288.004 56.5195C288.237 57.1194 288.472 57.9937 288.706 59.1423C288.867 62.286 289.126 65.5425 289.481 68.9117C289.895 72.2938 290.337 75.6822 290.809 79.0771C290.996 79.0573 291.148 79.0603 291.264 79.0858C291.451 79.0661 291.638 79.0464 291.826 79.0266C292.478 79.1092 293.198 79.2982 293.986 79.5936C294.774 79.889 295.237 80.4175 295.374 81.179C295.531 82.1277 295.306 82.8706 294.701 83.4076C294.095 83.9447 293.111 84.3985 291.75 84.7693C292.096 86.7957 292.449 88.7931 292.808 90.7614C293.18 92.6716 293.587 94.5591 294.03 96.424C294.024 96.7274 294.009 97.2116 293.984 97.8766C293.972 98.4835 293.896 99.1067 293.755 99.7461C293.686 100.34 293.535 100.886 293.304 101.384C293.072 101.881 292.763 102.179 292.376 102.276C291.93 102.361 291.501 102.236 291.087 101.901C290.731 101.579 290.388 101.199 290.058 100.761C289.741 100.264 289.453 99.7741 289.193 99.2904C289.005 98.7614 288.862 98.3033 288.765 97.9161C288.199 95.7804 287.662 93.651 287.154 91.5281C286.717 89.3598 286.309 87.1979 285.93 85.0424C283.387 84.97 280.623 84.7883 277.64 84.4973C274.715 84.2191 271.845 83.8311 269.029 83.3331C267.903 85.4013 266.784 87.4403 265.671 89.4503C264.629 91.415 263.61 93.4151 262.613 95.4507ZM283.056 61.5552C279.064 66.9539 275.421 72.4293 272.127 77.9815C276.047 78.7225 280.312 79.1433 284.921 79.2438C283.993 73.4935 283.371 67.5973 283.056 61.5552ZM313.883 60.2048C313.736 61.1476 313.516 62.2875 313.222 63.6245C312.985 64.9743 312.724 66.4403 312.436 68.0225C312.149 69.6048 311.884 71.2225 311.642 72.8757C311.413 74.4707 311.255 76.0205 311.167 77.5249C312.359 76.2636 313.59 75.3767 314.861 74.8641C316.19 74.3643 317.455 74.1552 318.656 74.2367C320.509 74.4009 322.034 74.9498 323.23 75.8835C324.426 76.8172 325.332 77.9613 325.948 79.3158C326.577 80.6122 326.942 82.0027 327.041 83.4873C327.154 84.9139 327.069 86.2665 326.788 87.5454C326.187 90.2774 324.903 92.646 322.938 94.6513C321.032 96.6693 318.921 98.3682 316.606 99.748C314.349 101.14 312.156 102.242 310.027 103.054C307.957 103.878 306.457 104.462 305.528 104.806C304.263 105.015 303.104 104.882 302.051 104.406C300.997 103.93 300.348 103.422 300.101 102.88C299.964 102.118 300.005 101.518 300.223 101.078C300.455 100.581 300.79 100.167 301.228 99.8369C301.666 99.5067 302.15 99.2475 302.679 99.0593C303.279 98.8256 303.785 98.6019 304.198 98.388C304.21 91.6868 304.555 84.9979 305.233 78.3211C305.923 71.5863 307.068 64.8602 308.669 58.1429C308.925 56.9803 309.304 56.363 309.808 56.291C310.369 56.2318 310.825 56.2406 311.173 56.3173C311.961 56.6127 312.618 57.0924 313.142 57.7563C313.666 58.4202 313.913 59.2364 313.883 60.2048ZM321.527 86.113C321.962 84.1366 321.768 82.6619 320.947 81.6887C320.138 80.6574 319.197 80.0847 318.125 79.9706C317.228 79.8949 316.373 80.0419 315.56 80.4115C314.747 80.7811 313.996 81.2862 313.307 81.9267C312.617 82.5672 312.025 83.3205 311.529 84.1866C311.092 85.0655 310.807 85.9473 310.673 86.832C310.469 88.3108 310.269 89.9122 310.072 91.6363C309.934 93.3732 309.863 94.9422 309.859 96.3431C310.93 95.9084 312.078 95.3993 313.303 94.8158C314.542 94.1742 315.712 93.4262 316.814 92.5719C317.974 91.7303 318.973 90.7922 319.81 89.7576C320.66 88.6648 321.233 87.45 321.527 86.113ZM355.03 83.7976C356.633 84.8209 357.876 86.0999 358.757 87.6346C359.696 89.1821 360.306 90.8401 360.587 92.6084C360.881 94.3186 360.872 96.023 360.559 97.7215C360.304 99.4328 359.784 100.964 358.999 102.315C358.001 103.802 356.836 105.221 355.502 106.573C354.168 107.925 352.728 109.07 351.18 110.01C349.633 110.949 347.962 111.617 346.168 112.015C344.374 112.412 342.489 112.393 340.513 111.958C338.129 111.433 336.245 110.44 334.861 108.977C333.476 107.514 332.511 105.809 331.965 103.86C331.419 101.912 331.243 99.8009 331.439 97.528C331.693 95.268 332.237 93.0719 333.072 90.9398C333.663 89.3634 334.386 87.8771 335.242 86.4809C336.169 85.0394 337.196 83.8333 338.324 82.8627C339.465 81.8339 340.67 81.0632 341.941 80.5507C343.27 80.0509 344.661 79.961 346.114 80.2809C346.928 80.46 347.907 80.8583 349.051 81.4758C350.207 82.0351 351.245 82.7206 352.163 83.5322C353.073 83.001 354.028 83.0895 355.03 83.7976ZM350.316 89.4333C349.766 88.8857 349.126 88.1962 348.394 87.3648C347.734 86.4882 347.084 85.9794 346.445 85.8387C345.747 85.6852 344.979 85.8513 344.141 86.3372C343.361 86.8359 342.613 87.4636 341.898 88.2203C341.254 88.9318 340.662 89.6851 340.121 90.4802C339.58 91.2754 339.194 91.9217 338.963 92.4193C338.596 93.2528 338.25 94.2736 337.923 95.4815C337.596 96.6894 337.415 97.9293 337.379 99.2011C337.355 100.415 337.554 101.586 337.976 102.715C338.469 103.799 339.339 104.691 340.587 105.392C341.349 105.804 342.308 106.015 343.464 106.026C344.632 105.978 345.817 105.721 347.016 105.254C348.274 104.799 349.496 104.093 350.682 103.135C351.926 102.19 352.976 101.019 353.832 99.6233C354.785 98.0655 355.168 96.3217 354.984 94.3918C354.87 92.4165 354.06 90.8364 352.553 89.6516C352.082 89.8526 351.644 89.9084 351.237 89.8188C350.83 89.7293 350.523 89.6008 350.316 89.4333ZM376.709 93.4147C376.015 94.9074 375.282 96.5744 374.511 98.4159C373.753 100.199 373.095 101.944 372.536 103.649C372.036 105.367 371.691 106.937 371.5 108.358C371.367 109.791 371.528 110.862 371.981 111.572C372.931 111.963 374.154 111.806 375.65 111.099C377.159 110.335 378.697 109.302 380.263 108.001C381.829 106.7 383.305 105.258 384.69 103.673C386.087 102.031 387.143 100.557 387.857 99.251C388.243 98.6047 388.607 97.9228 388.947 97.2056C389.288 96.4883 389.548 95.7227 389.727 94.9089C389.829 94.4439 390.216 94.0719 390.887 93.793C391.629 93.4687 392.209 93.3223 392.629 93.3537C392.933 93.3596 393.239 93.4881 393.55 93.7392C393.918 94.0032 394.21 94.3415 394.423 94.7543C394.708 95.1217 394.916 95.5635 395.046 96.0797C395.247 96.5506 395.296 97.0185 395.194 97.4836C394.926 99.253 394.678 101.21 394.45 103.353C394.222 105.497 394.023 107.647 393.853 109.804C393.741 111.973 393.642 114.085 393.556 116.138C393.47 118.191 393.428 120.041 393.431 121.687C393.465 122.365 393.131 123.053 392.429 123.752C391.726 124.45 391.036 124.816 390.358 124.85C389.81 124.851 389.27 124.671 388.74 124.311C388.268 123.963 387.964 123.409 387.826 122.647C387.715 121.769 387.642 120.717 387.607 119.491C387.643 118.219 387.686 116.918 387.735 115.588C387.855 114.212 387.956 112.924 388.037 111.723C388.131 110.464 388.239 109.421 388.36 108.595C387.143 109.972 385.744 111.341 384.165 112.7C382.657 114.013 381.059 115.185 379.369 116.215C377.751 117.199 376.103 117.903 374.425 118.326C372.818 118.704 371.249 118.633 369.718 118.113C367.457 117.31 366.164 114.74 365.839 110.402C365.732 108.672 365.897 106.819 366.332 104.843C366.825 102.879 367.399 100.964 368.053 99.097C368.779 97.1846 369.508 95.3949 370.241 93.7278C371.032 92.0735 371.694 90.7262 372.228 89.6857C372.446 89.2463 372.768 88.8905 373.194 88.6185C373.632 88.2884 374.071 88.2327 374.511 88.4513C375.344 88.8176 376.014 89.5135 376.519 90.539C377.083 91.5772 377.146 92.5358 376.709 93.4147ZM424.228 106.434C425.346 106.619 426.392 107.124 427.369 107.948C428.345 108.773 428.699 109.795 428.431 111.016C428.097 111.979 427.404 112.497 426.352 112.57C425.371 112.597 424.589 112.547 424.008 112.419C422.845 112.163 421.589 111.917 420.239 111.681C418.89 111.445 417.505 111.232 416.084 111.041C415.545 112.933 415.032 114.71 414.545 116.37C414.116 118.043 413.725 119.541 413.373 120.866C413.033 122.132 412.774 123.172 412.595 123.985C412.415 124.799 412.349 125.241 412.394 125.312C413.724 125.361 415.173 125.284 416.741 125.081C418.381 124.832 419.997 124.548 421.591 124.229C423.256 123.864 424.863 123.486 426.412 123.096C428.031 122.66 429.551 122.263 430.97 121.905C431.616 121.743 432.158 121.771 432.597 121.989C433.095 122.221 433.357 122.552 433.384 122.985C433.359 123.65 433.099 124.416 432.604 125.282C432.109 126.148 431.4 126.875 430.478 127.465C429.452 127.97 428.111 128.528 426.453 129.138C424.866 129.703 423.169 130.213 421.362 130.669C419.555 131.124 417.739 131.486 415.912 131.755C414.157 131.978 412.627 132.007 411.322 131.841C409.366 131.594 408.028 130.751 407.308 129.312C406.589 127.874 406.376 126.212 406.669 124.326C406.962 122.441 407.406 120.284 408.002 117.855C408.656 115.439 409.341 112.878 410.059 110.172C408.929 110.045 407.828 109.924 406.756 109.81C405.755 109.651 404.777 109.527 403.821 109.438C403.065 109.272 402.261 108.912 401.408 108.359C400.612 107.818 400.324 107.054 400.541 106.065C400.618 105.717 400.866 105.284 401.284 104.766C401.703 104.249 402.438 103.954 403.49 103.881C405.963 103.998 408.685 104.232 411.655 104.581C412.431 101.887 413.217 99.2872 414.012 96.7807C414.808 94.2742 415.523 91.9939 416.158 89.9397C416.369 89.2549 416.707 88.6893 417.171 88.243C417.635 87.7966 418.071 87.6182 418.477 87.7077C419.478 87.8671 420.351 88.3334 421.095 89.1066C421.91 89.8345 422.24 90.5472 422.087 91.2448C421.419 93.17 420.694 95.3567 419.911 97.8051C419.187 100.266 418.45 102.785 417.699 105.363C418.888 105.502 420.005 105.687 421.051 105.918C422.168 106.103 423.227 106.275 424.228 106.434ZM470.753 111.647C470.606 112.59 470.438 113.772 470.247 115.193C470.127 116.568 469.988 118.031 469.829 119.58C469.684 121.072 469.538 122.563 469.393 124.055C469.306 125.559 469.215 126.941 469.12 128.2C470.041 127.062 471.172 125.665 472.511 124.01C473.851 122.355 475.2 120.793 476.559 119.325C477.989 117.811 479.356 116.588 480.658 115.656C482.031 114.678 483.153 114.286 484.025 114.478C484.955 114.682 485.696 115.333 486.247 116.429C486.869 117.48 487.33 118.709 487.629 120.116C487.929 121.523 488.123 122.998 488.21 124.54C488.355 126.096 488.451 127.458 488.499 128.626C488.897 127.922 489.374 127.143 489.927 126.29C490.551 125.391 491.176 124.492 491.8 123.594C492.496 122.65 493.214 121.741 493.954 120.868C494.753 120.008 495.555 119.271 496.361 118.656C497.296 118.008 498.238 117.606 499.186 117.449C500.148 117.234 500.832 117.171 501.239 117.261C501.762 117.376 502.334 117.685 502.955 118.187C503.647 118.644 504.313 119.217 504.953 119.907C505.594 120.596 506.151 121.389 506.624 122.286C507.168 123.137 507.56 123.985 507.8 124.83C508.269 126.579 508.531 128.434 508.586 130.397C508.7 132.372 508.688 134.228 508.549 135.965C508.41 137.702 508.223 139.245 507.987 140.595C507.822 141.9 507.711 142.82 507.654 143.356C507.487 144.111 507.272 144.673 507.008 145.042C506.757 145.352 506.373 145.573 505.857 145.703C505.154 145.853 504.576 145.847 504.124 145.687C503.684 145.468 503.351 145.182 503.124 144.827C502.898 144.472 502.736 144.102 502.638 143.714C502.553 143.269 502.514 142.895 502.52 142.591C502.64 141.216 502.737 139.805 502.811 138.359C502.944 136.925 503.035 135.544 503.084 134.214C503.146 132.826 503.124 131.541 503.018 130.36C502.983 129.133 502.888 128.046 502.731 127.097C502.666 126.839 502.526 126.503 502.312 126.091C502.169 125.632 501.962 125.191 501.69 124.765C501.476 124.352 501.249 123.998 501.01 123.701C500.77 123.405 500.599 123.215 500.495 123.131C499.914 123.003 499.182 123.421 498.3 124.385C497.43 125.29 496.538 126.435 495.624 127.818C494.71 129.201 493.806 130.678 492.912 132.249C492.089 133.774 491.433 135.092 490.944 136.204C490.612 137.715 490.072 138.785 489.324 139.412C488.589 139.982 487.902 140.196 487.263 140.056C486.623 139.915 485.977 139.529 485.323 138.897C484.741 138.221 484.404 137.537 484.312 136.847C484.168 135.84 484.021 134.71 483.87 133.458C483.719 132.206 483.545 130.918 483.349 129.595C483.211 128.285 483.037 126.997 482.828 125.733C482.677 124.48 482.5 123.345 482.298 122.325C481.241 123.25 480.159 124.292 479.05 125.45C478.001 126.62 476.944 127.82 475.881 129.049C474.877 130.29 473.872 131.532 472.868 132.773C471.934 133.969 471.061 135.027 470.25 135.945C469.702 136.495 469.138 136.98 468.558 137.401C467.99 137.764 467.387 137.875 466.748 137.734C466.283 137.632 465.833 137.319 465.4 136.797C464.979 136.217 464.606 135.556 464.282 134.814C463.958 134.073 463.682 133.25 463.454 132.347C463.284 131.456 463.202 130.585 463.207 129.733C463.292 127.131 463.486 124.309 463.79 121.268C464.165 118.181 464.52 115.182 464.857 112.269C465.016 111.268 465.331 110.393 465.8 109.643C466.341 108.848 467.109 108.407 468.103 108.322C469.129 108.365 469.853 108.676 470.274 109.256C470.694 109.837 470.854 110.634 470.753 111.647ZM539.088 134.734C536.526 135.572 533.855 136.081 531.073 136.261C528.303 136.383 525.407 136.111 522.385 135.445C522.053 137.506 522.276 139.261 523.054 140.712C523.844 142.105 524.998 143.09 526.517 143.668C527.421 143.989 528.358 144.165 529.326 144.195C530.353 144.238 531.311 144.175 532.202 144.006C533.163 143.791 534.044 143.527 534.844 143.216C535.644 142.904 536.356 142.574 536.982 142.224C537.608 141.874 538.224 141.705 538.831 141.717C539.45 141.67 539.893 141.737 540.158 141.917C540.907 142.387 541.006 143.323 540.454 144.725C539.114 146.38 537.425 147.685 535.387 148.638C533.362 149.533 531.236 149.918 529.008 149.793C527.071 149.733 525.172 149.223 523.311 148.265C521.45 147.307 519.901 145.899 518.664 144.042C517.621 142.411 516.949 140.618 516.649 138.662C516.348 136.707 516.321 134.751 516.569 132.794C516.791 130.954 517.314 129.271 518.137 127.746C519.019 126.233 520.117 124.982 521.432 123.991C522.76 122.943 524.298 122.184 526.047 121.716C527.795 121.248 529.729 121.186 531.847 121.53C534.385 121.906 536.549 122.87 538.341 124.422C540.132 125.975 541.217 127.829 541.596 129.984C541.818 131.191 541.723 132.176 541.311 132.938C540.958 133.714 540.217 134.312 539.088 134.734ZM530.366 126.598C529.759 126.586 529.075 126.649 528.313 126.786C527.61 126.936 526.916 127.179 526.233 127.516C525.62 127.808 525.017 128.193 524.424 128.672C523.902 129.106 523.535 129.665 523.323 130.35C524.312 130.567 525.406 130.717 526.607 130.798C527.866 130.893 529.074 130.945 530.229 130.956C531.456 130.921 532.572 130.832 533.579 130.688C534.644 130.556 535.541 130.358 536.27 130.092C536.048 128.885 535.323 128.024 534.096 127.51C532.939 126.951 531.696 126.647 530.366 126.598Z" fill="#049DD9"/>
<path d="M307.909 143.931L286.417 134" stroke="white" stroke-width="4.25143"/>
<rect width="4.25143" height="4.25143" transform="matrix(-1 0 0 1 290.251 131)" fill="white"/>
<rect width="4.71859" height="4.30614" transform="matrix(-0.714715 -0.699416 -0.699416 0.714715 311.384 143.3)" fill="white"/>
</svg>
